<svg width="24" height="24" viewBox="0 0 24 24" fill="none" xmlns="http://www.w3.org/2000/svg">
<g id="Component 2">
<path id="Vector" d="M22 9.49001H17.21L12.83 2.93001C12.64 2.65001 12.32 2.51001 12 2.51001C11.68 2.51001 11.36 2.65001 11.17 2.94001L6.79 9.49001H2C1.45 9.49001 1 9.94001 1 10.49C1 10.58 1.01 10.67 1.04 10.76L3.58 20.03C3.81 20.87 4.58 21.49 5.5 21.49H18.5C19.42 21.49 20.19 20.87 20.43 20.03L22.97 10.76L23 10.49C23 9.94001 22.55 9.49001 22 9.49001ZM12 5.29001L14.8 9.49001H9.2L12 5.29001ZM18.5 19.49L5.51 19.5L3.31 11.49H20.7L18.5 19.49ZM12 13.49C10.9 13.49 10 14.39 10 15.49C10 16.59 10.9 17.49 12 17.49C13.1 17.49 14 16.59 14 15.49C14 14.39 13.1 13.49 12 13.49Z" fill="black"/>
</g>
</svg>
