<svg width="33" height="27" viewBox="0 0 33 27" fill="none" xmlns="http://www.w3.org/2000/svg">
<g id="Logo">
<g id="Vector">
<path d="M5.85906 2.5393L1.65393 10.4101C1.12916 11.3952 0.866211 12.4763 0.866211 13.5588C0.866211 14.6415 1.12916 15.7224 1.65393 16.7075L5.85906 24.5785C6.63414 26.0323 8.14992 26.9403 9.79945 26.9403H14.2661V24.7106H14.2646C13.4406 24.7106 12.6827 24.2573 12.2951 23.5305L8.09156 15.658C7.74025 15.0018 7.56517 14.2811 7.56517 13.5588C7.56517 12.8365 7.74025 12.1159 8.09156 11.4598L12.2951 3.58735C12.6827 2.86037 13.4406 2.40718 14.2646 2.40718H14.2661V0.177338H9.79945C8.14992 0.177338 6.63414 1.0855 5.85906 2.5393Z" fill="black"/>
<path d="M31.3426 10.4102L27.1376 2.53936C26.3624 1.0854 24.8467 0.177395 23.1972 0.177395H18.7304V2.40708H18.732C19.5561 2.40708 20.314 2.86043 20.7014 3.58725L24.9049 11.4597C25.2564 12.1159 25.4312 12.8366 25.4312 13.5589C25.4312 14.2812 25.2564 15.0018 24.9049 15.6581L20.7014 23.5304C20.314 24.2573 19.5561 24.7105 18.732 24.7105H18.7304V26.9404H23.1972C24.8467 26.9404 26.3624 26.0324 27.1376 24.5784L31.3426 16.7076C31.8672 15.7225 32.1303 14.6414 32.1303 13.5589C32.1303 12.4763 31.8672 11.3953 31.3426 10.4102Z" fill="black"/>
</g>
</g>
</svg>
