<svg width="33" height="27" viewBox="0 0 33 27" fill="none" xmlns="http://www.w3.org/2000/svg">
<g id="Logo">
<g id="Vector">
<path d="M5.85954 2.54017L1.65401 10.4117C1.12919 11.3969 0.866211 12.4781 0.866211 13.5607C0.866211 14.6435 1.12919 15.7246 1.65401 16.7097L5.85954 24.5815C6.63469 26.0354 8.15062 26.9435 9.8003 26.9435H14.2674V24.7136H14.2659C13.4418 24.7136 12.6838 24.2602 12.2962 23.5333L8.09225 15.6601C7.74091 15.0038 7.56581 14.2831 7.56581 13.5607C7.56581 12.8384 7.74091 12.1176 8.09225 11.4615L12.2962 3.58832C12.6838 2.86127 13.4418 2.40803 14.2659 2.40803H14.2674V0.177979H9.8003C8.15062 0.177979 6.63469 1.08623 5.85954 2.54017Z" fill="white"/>
<path d="M31.3455 10.4118L27.1401 2.54023C26.3648 1.08612 24.849 0.178036 23.1993 0.178036H18.7321V2.40793H18.7337C19.5579 2.40793 20.3158 2.86132 20.7033 3.58821L24.9072 11.4614C25.2587 12.1177 25.4335 12.8384 25.4335 13.5608C25.4335 14.2832 25.2587 15.0039 24.9072 15.6602L20.7033 23.5332C20.3158 24.2603 19.5579 24.7135 18.7337 24.7135H18.7321V26.9436H23.1993C24.849 26.9436 26.3648 26.0355 27.1401 24.5814L31.3455 16.7098C31.8701 15.7246 32.1333 14.6434 32.1333 13.5608C32.1333 12.4782 31.8701 11.397 31.3455 10.4118Z" fill="white"/>
</g>
</g>
</svg>
