<svg width="18" height="18" viewBox="0 0 18 18" fill="none" xmlns="http://www.w3.org/2000/svg">
<path id="Vector" d="M9.00003 2.54166C10.1841 2.54166 11.1528 3.51041 11.1528 4.69444C11.1528 5.87847 10.1841 6.84722 9.00003 6.84722C7.816 6.84722 6.84725 5.87847 6.84725 4.69444C6.84725 3.51041 7.816 2.54166 9.00003 2.54166ZM9.00003 12.2292C11.9063 12.2292 15.2431 13.6177 15.4584 14.3819V15.4583H2.54169V14.3927C2.75697 13.6177 6.09378 12.2292 9.00003 12.2292ZM9.00003 0.388885C6.62121 0.388885 4.69447 2.31562 4.69447 4.69444C4.69447 7.07326 6.62121 9 9.00003 9C11.3788 9 13.3056 7.07326 13.3056 4.69444C13.3056 2.31562 11.3788 0.388885 9.00003 0.388885ZM9.00003 10.0764C6.12607 10.0764 0.388916 11.5187 0.388916 14.3819V17.6111H17.6111V14.3819C17.6111 11.5187 11.874 10.0764 9.00003 10.0764Z" fill="black"/>
</svg>
